<svg width="200" height="11" viewBox="0 0 200 11" fill="none" xmlns="http://www.w3.org/2000/svg">
<path d="M12.5019 0.200058H0.461914V2.31406H5.22191V10.0001H7.74191V2.31406H12.5019V0.200058Z" fill="url(#paint0_linear)"/>
<path d="M32.2437 10.0001H35.0297L29.9617 0.200058H26.5597L21.5057 10.0001H24.2777L25.3277 7.91406H31.1937L32.2437 10.0001ZM26.2657 6.03806L28.2677 2.06206L30.2557 6.03806H26.2657Z" fill="url(#paint1_linear)"/>
<path d="M58.284 3.79806C58.284 1.61406 56.758 0.200058 54.532 0.200058H46.832V10.0001H49.352V7.38206H53.412L54.994 10.0001H57.962L56.156 7.08806C57.472 6.57006 58.284 5.39406 58.284 3.79806ZM49.352 2.31406H53.832C54.588 2.31406 55.764 2.31406 55.764 3.79806C55.764 5.26806 54.588 5.26806 53.832 5.26806H49.352V2.31406Z" fill="url(#paint2_linear)"/>
<path d="M76.2313 6.38806H79.8853C79.8293 7.13006 78.8493 8.19406 76.4133 8.19406C73.1513 8.19406 72.6893 6.34606 72.6893 5.15606C72.6893 3.98006 73.1373 2.17406 76.4133 2.17406C79.0733 2.17406 79.7453 3.28006 79.8853 4.02206H82.4473C82.2933 1.58606 80.3333 0.0600586 76.4133 0.0600586C72.3813 0.0600586 70.1693 1.85206 70.1693 5.10006C70.1693 8.34806 72.3813 10.1401 75.9933 10.1401C78.0793 10.1401 79.5493 9.46806 80.4733 8.46006L80.5853 10.0001H82.4473V4.75006H76.2313V6.38806Z" fill="url(#paint3_linear)"/>
<path d="M104.994 2.20206V0.200058H94.6343V10.0001H104.994V7.99806H97.1543V6.01006H104.994V4.19006H97.1543V2.20206H104.994Z" fill="url(#paint4_linear)"/>
<path d="M128.932 0.200058H116.892V2.31406H121.652V10.0001H124.172V2.31406H128.932V0.200058Z" fill="url(#paint5_linear)"/>
<path d="M152.942 0.200058H140.902V2.31406H145.662V10.0001H148.182V2.31406H152.942V0.200058Z" fill="url(#paint6_linear)"/>
<path d="M175.331 2.20206V0.200058H164.971V10.0001H175.331V7.99806H167.491V6.01006H175.331V4.19006H167.491V2.20206H175.331Z" fill="url(#paint7_linear)"/>
<path d="M194.562 0.200058H187.45V10.0001H194.562C197.096 10.0001 199.322 8.43206 199.322 5.10006C199.322 1.76806 197.096 0.200058 194.562 0.200058ZM193.61 7.88606H189.97V2.31406H193.61C195.514 2.31406 196.802 2.72006 196.802 5.10006C196.802 7.48006 195.514 7.88606 193.61 7.88606Z" fill="url(#paint8_linear)"/>
<defs>
<linearGradient id="paint0_linear" x1="-15.2174" y1="9.64583" x2="215.868" y2="75.8085" gradientUnits="userSpaceOnUse">
<stop stop-color="#0704FD"/>
<stop offset="0.453125" stop-color="#F498AD"/>
<stop offset="1" stop-color="#BB44CB"/>
</linearGradient>
<linearGradient id="paint1_linear" x1="-15.2174" y1="9.64583" x2="215.868" y2="75.8085" gradientUnits="userSpaceOnUse">
<stop stop-color="#0704FD"/>
<stop offset="0.453125" stop-color="#F498AD"/>
<stop offset="1" stop-color="#BB44CB"/>
</linearGradient>
<linearGradient id="paint2_linear" x1="-15.2174" y1="9.64583" x2="215.868" y2="75.8085" gradientUnits="userSpaceOnUse">
<stop stop-color="#0704FD"/>
<stop offset="0.453125" stop-color="#F498AD"/>
<stop offset="1" stop-color="#BB44CB"/>
</linearGradient>
<linearGradient id="paint3_linear" x1="-15.2174" y1="9.64583" x2="215.868" y2="75.8085" gradientUnits="userSpaceOnUse">
<stop stop-color="#0704FD"/>
<stop offset="0.453125" stop-color="#F498AD"/>
<stop offset="1" stop-color="#BB44CB"/>
</linearGradient>
<linearGradient id="paint4_linear" x1="-15.2174" y1="9.64583" x2="215.868" y2="75.8085" gradientUnits="userSpaceOnUse">
<stop stop-color="#0704FD"/>
<stop offset="0.453125" stop-color="#F498AD"/>
<stop offset="1" stop-color="#BB44CB"/>
</linearGradient>
<linearGradient id="paint5_linear" x1="-15.2174" y1="9.64583" x2="215.868" y2="75.8085" gradientUnits="userSpaceOnUse">
<stop stop-color="#0704FD"/>
<stop offset="0.453125" stop-color="#F498AD"/>
<stop offset="1" stop-color="#BB44CB"/>
</linearGradient>
<linearGradient id="paint6_linear" x1="-15.2174" y1="9.64583" x2="215.868" y2="75.8085" gradientUnits="userSpaceOnUse">
<stop stop-color="#0704FD"/>
<stop offset="0.453125" stop-color="#F498AD"/>
<stop offset="1" stop-color="#BB44CB"/>
</linearGradient>
<linearGradient id="paint7_linear" x1="-15.2174" y1="9.64583" x2="215.868" y2="75.8085" gradientUnits="userSpaceOnUse">
<stop stop-color="#0704FD"/>
<stop offset="0.453125" stop-color="#F498AD"/>
<stop offset="1" stop-color="#BB44CB"/>
</linearGradient>
<linearGradient id="paint8_linear" x1="-15.2174" y1="9.64583" x2="215.868" y2="75.8085" gradientUnits="userSpaceOnUse">
<stop stop-color="#0704FD"/>
<stop offset="0.453125" stop-color="#F498AD"/>
<stop offset="1" stop-color="#BB44CB"/>
</linearGradient>
</defs>
</svg>
