<svg width="16" height="16" viewBox="0 0 16 16" fill="none" xmlns="http://www.w3.org/2000/svg">
<path d="M1.14184 14.9471C1.12856 14.9143 1.11408 14.8731 1.09953 14.822C1.04494 14.63 1.00002 14.3338 1 13.9005C1 13.9004 1 13.9002 1 13.9001L1.14184 14.9471ZM1.14184 14.9471C1.24569 14.8954 1.34871 14.8439 1.45108 14.7927C3.2388 13.8993 4.82608 13.106 7.10404 13.106H8.89997C10.3005 13.106 11.3897 12.8403 12.2628 12.3828C13.1326 11.9271 13.806 11.2658 14.2679 10.4196C14.7312 9.57091 15.0003 8.5126 15.0003 7.14915V6.95684C15.0003 5.59338 14.7312 4.53507 14.2679 3.68635C13.806 2.84022 13.1326 2.17893 12.2628 1.72313C11.3897 1.26565 10.3005 1 8.89997 1H7.10404C5.70348 1 4.6143 1.26565 3.74125 1.72313C2.8714 2.17893 2.19796 2.84022 1.73611 3.68635C1.27285 4.53507 1.00371 5.59338 1.00371 6.95684V7.14915C1.00371 7.89898 1.00287 8.84253 1.00203 9.59839L1.00088 10.5442L1.0005 10.8223L1.00039 10.8971L1.00036 10.9164L1.00036 10.9211L1.14184 14.9471Z" stroke="black" stroke-width="2"/>
</svg>
